<?xml version="1.0" encoding="UTF-8" standalone="no"?>
<!-- Created with Inkscape (http://www.inkscape.org/) -->

<svg
   xmlns:dc="http://purl.org/dc/elements/1.1/"
   xmlns:cc="http://creativecommons.org/ns#"
   xmlns:rdf="http://www.w3.org/1999/02/22-rdf-syntax-ns#"
   xmlns:svg="http://www.w3.org/2000/svg"
   xmlns="http://www.w3.org/2000/svg"
   xmlns:sodipodi="http://sodipodi.sourceforge.net/DTD/sodipodi-0.dtd"
   xmlns:inkscape="http://www.inkscape.org/namespaces/inkscape"
   width="18.757965mm"
   height="38.120129mm"
   viewBox="0 0 18.757965 38.12013"
   version="1.1"
   id="svg8"
   inkscape:version="0.92.1 r"
   sodipodi:docname="tem.svg">
  <defs
     id="defs2" />
  <sodipodi:namedview
     id="base"
     pagecolor="#ffffff"
     bordercolor="#666666"
     borderopacity="1.0"
     inkscape:pageopacity="0.0"
     inkscape:pageshadow="2"
     inkscape:zoom="2.8"
     inkscape:cx="-0.85116175"
     inkscape:cy="80.367703"
     inkscape:document-units="mm"
     inkscape:current-layer="text16"
     showgrid="false"
     fit-margin-top="0"
     fit-margin-left="0"
     fit-margin-right="0"
     fit-margin-bottom="0"
     inkscape:window-width="832"
     inkscape:window-height="868"
     inkscape:window-x="2474"
     inkscape:window-y="860"
     inkscape:window-maximized="0" />
  <metadata
     id="metadata5">
    <rdf:RDF>
      <cc:Work
         rdf:about="">
        <dc:format>image/svg+xml</dc:format>
        <dc:type
           rdf:resource="http://purl.org/dc/dcmitype/StillImage" />
        <dc:title></dc:title>
      </cc:Work>
    </rdf:RDF>
  </metadata>
  <g
     inkscape:label="Layer 1"
     inkscape:groupmode="layer"
     id="layer1"
     transform="translate(-31.624911,-100.71111)">
    <text
       xml:space="preserve"
       style="font-style:normal;font-variant:normal;font-weight:normal;font-stretch:normal;font-size:10.58333302px;line-height:1.25;font-family:tem;-inkscape-font-specification:tem;letter-spacing:0px;word-spacing:0px;fill:#000000;fill-opacity:1;stroke:none;stroke-width:0.26458332"
       x="21.922617"
       y="72.482147"
       id="text12"><tspan
         sodipodi:role="line"
         id="tspan10"
         x="21.922617"
         y="82.800896"
         style="stroke-width:0.26458332" /></text>
    <g
       aria-label=""
       style="font-style:normal;font-variant:normal;font-weight:normal;font-stretch:normal;font-size:3.45163536px;line-height:1.25;font-family:tem;-inkscape-font-specification:tem;letter-spacing:0px;word-spacing:0px;fill:#000000;fill-opacity:1;stroke:none;stroke-width:0.08629089"
       id="text16">
      <path
         d="m 39.836508,123.85685 q 0.4428,0.52363 1.167345,0.52363 0.724569,0 1.167355,-0.52363 1.569893,-2.09312 2.334707,-3.13964 2.213941,-3.13985 3.542307,-5.67589 1.851659,-3.46177 1.851659,-5.47442 0,-2.37491 -1.2076,-4.42793 -1.207607,-2.05285 -3.260542,-3.22024 -2.012669,-1.20762 -4.427886,-1.20762 -2.415207,0 -4.468131,1.20762 -2.01268,1.16739 -3.220283,3.22024 -1.207603,2.05302 -1.207603,4.42793 0,2.81779 3.582562,8.45331 1.932169,3.05921 4.14611,5.83664 z m 1.167345,-20.20726 q 1.569886,0 2.938514,0.80472 1.36861,0.80468 2.173686,2.17371 0.805037,1.32846 0.805037,2.93849 0,1.57001 -1.932176,4.99155 -1.650393,2.85792 -3.985097,5.95747 -2.374948,-3.26062 -3.944837,-5.95747 -1.972425,-3.46194 -1.972425,-5.03178 0,-1.5698 0.805041,-2.89826 0.805041,-1.36854 2.173686,-2.17371 1.368624,-0.80472 2.9385,-0.80472 z m 2.737248,6.60165 q 0,-1.16739 -0.80504,-1.93223 -0.764807,-0.80468 -1.932176,-0.80468 -1.127143,0 -1.932159,0.80468 -0.80504,0.76505 -0.80504,1.93223 0,1.12652 0.80504,1.93216 0.805037,0.80471 1.932159,0.80471 1.127153,0 1.932176,-0.80471 0.80504,-0.80468 0.80504,-1.93216 z m -1.167362,19.20086 7.487152,-7.48708 q 0.321985,-0.32226 0.321985,-0.76501 0,-0.4828 -0.321985,-0.80468 -0.321985,-0.32227 -0.805037,-0.32227 -0.442804,0 -0.764807,0.32227 l -7.487162,7.48722 -7.487145,-7.48722 q -0.321985,-0.32227 -0.805037,-0.32227 -0.442801,0 -0.764807,0.32227 -0.321985,0.32227 -0.321985,0.80468 0,0.44303 0.321985,0.76501 l 7.487152,7.48708 -7.487152,7.48714 q -0.321985,0.32156 -0.321985,0.76502 0,0.48284 0.321985,0.80471 0.321985,0.32227 0.764807,0.32227 0.483045,0 0.805037,-0.32227 l 7.487145,-7.48725 7.487162,7.48725 q 0.321985,0.32227 0.764807,0.32227 0.483045,0 0.805037,-0.32227 0.321985,-0.32226 0.321985,-0.80471 0,-0.44303 -0.321985,-0.76502 z"
         style="fill:#00ff80;stroke-width:1.00633752;fill-opacity:1"
         id="path3688"
         inkscape:connector-curvature="0" />
    </g>
  </g>
</svg>
